<svg height="2500" viewBox="0 0 1200 1200" width="2500" xmlns="http://www.w3.org/2000/svg"><path d="m0 0h1200v1200h-1200z" fill="#135dfb"/><g fill="#fff"><circle cx="600" cy="423.84" r="173.54"/><path d="m158.86 795.72c-8.3-4.25-14.72-10.29-19.24-18.13-4.53-7.83-6.78-17.01-6.78-27.55s2.29-19.54 6.89-27.44c4.59-7.9 11-14.04 19.24-18.43s17.75-6.58 28.56-6.58c7.42 0 14.51 1.32 21.27 3.95 6.75 2.63 12.76 6.51 18.03 11.65l-17.62 19.24c-5.67-5.27-12.36-7.9-20.05-7.9-7.29 0-13.23 2.33-17.82 6.99s-6.89 10.77-6.89 18.33 2.26 13.67 6.78 18.33 10.5 6.99 17.92 6.99c8.23 0 15.26-2.9 21.07-8.71l18.02 19.04c-11.21 11.07-24.58 16.61-40.1 16.61-11.21 0-20.96-2.13-29.27-6.38zm102.08-.21c-8.31-4.39-14.69-10.5-19.14-18.33-4.46-7.83-6.68-16.94-6.68-27.34s2.23-19.51 6.68-27.34c4.46-7.83 10.83-13.94 19.14-18.33 8.3-4.39 17.99-6.58 29.06-6.58s20.79 2.19 29.17 6.58c8.37 4.39 14.79 10.5 19.24 18.33 4.46 7.83 6.68 16.95 6.68 27.34s-2.23 19.52-6.68 27.34c-4.46 7.83-10.87 13.94-19.24 18.33s-18.1 6.58-29.17 6.58-20.76-2.2-29.06-6.58zm46.08-27.44c4.32-4.73 6.48-10.8 6.48-18.23s-2.16-13.5-6.48-18.23-10-7.09-17.01-7.09-12.49 2.36-16.81 7.09-6.48 10.8-6.48 18.23 2.16 13.5 6.48 18.23 9.92 7.09 16.81 7.09 12.69-2.36 17.01-7.09zm155.25 28.25c3.71 5.47 5.57 11.78 5.57 18.94 0 8.37-2.3 15.76-6.89 22.18-4.59 6.41-11.07 11.34-19.45 14.79-8.37 3.44-18.09 5.17-29.16 5.17s-20.25-1.76-28.36-5.27c-8.1-3.51-14.35-8.51-18.74-14.99s-6.58-13.98-6.58-22.48c0-2.16.07-3.78.2-4.86h30.59c-.27 6.61 1.58 11.75 5.57 15.39 3.98 3.65 9.75 5.47 17.32 5.47 6.75 0 12.22-1.52 16.41-4.56 4.18-3.04 6.28-7.06 6.28-12.05s-1.92-9.08-5.77-11.85-9.35-4.15-16.51-4.15c-11.07 0-20.76-2.09-29.06-6.28-8.3-4.18-14.72-10.09-19.24-17.72-4.53-7.63-6.78-16.51-6.78-26.63s2.33-18.4 6.99-26.03 11.14-13.57 19.44-17.82 17.79-6.38 28.46-6.38c8.24 0 15.8 1.62 22.69 4.86l11.75-14.58 23.29 16.81-13.37 15.6c6.75 7.7 10.13 16.88 10.13 27.55 0 7.43-1.79 14.28-5.37 20.56s-8.61 11.44-15.09 15.49c6.75 3.11 11.98 7.39 15.7 12.86zm-32.71-31.7c4.32-4.32 6.48-10.06 6.48-17.22s-2.13-12.86-6.38-17.11-9.96-6.38-17.12-6.38-12.69 2.13-17.01 6.38-6.48 9.96-6.48 17.11 2.16 12.73 6.48 17.12 9.99 6.58 17.01 6.58 12.69-2.16 17.02-6.48zm149.58-54.88c7.36 8.1 11.04 19.31 11.04 33.62v56.51h-31.8v-54.69c0-6.48-1.62-11.55-4.86-15.19s-7.7-5.47-13.37-5.47c-6.21 0-11.21 2.1-14.99 6.28-3.78 4.19-5.67 9.66-5.67 16.41v52.66h-31.8v-100.06h27.55l2.02 11.75c3.91-4.46 8.61-7.9 14.08-10.33s11.51-3.64 18.13-3.64c12.42 0 22.31 4.05 29.67 12.15zm36.25-24.71c-3.44-3.24-5.16-7.36-5.16-12.36s1.75-9.32 5.27-12.56c3.51-3.24 7.97-4.86 13.37-4.86s9.86 1.62 13.37 4.86 5.27 7.43 5.27 12.56-1.72 9.11-5.17 12.36c-3.44 3.24-7.93 4.86-13.47 4.86s-10.03-1.62-13.47-4.86zm-2.53 14.79h31.8v100.06h-31.8zm55.7-41.73h31.8v141.78h-31.8zm58.23 26.94c-3.44-3.24-5.16-7.36-5.16-12.36s1.75-9.32 5.27-12.56c3.51-3.24 7.97-4.86 13.37-4.86s9.86 1.62 13.37 4.86 5.27 7.43 5.27 12.56-1.72 9.11-5.17 12.36c-3.44 3.24-7.93 4.86-13.47 4.86s-10.03-1.62-13.47-4.86zm-2.53 14.79h31.8v100.06h-31.8zm156.16-.01v100.06h-27.55l-2.02-11.55c-3.78 4.46-8.4 7.87-13.87 10.23s-11.44 3.54-17.93 3.54c-12.29 0-22.08-4.05-29.37-12.15s-10.94-19.31-10.94-33.62v-56.51h31.8v54.69c0 6.48 1.59 11.55 4.76 15.19 3.17 3.65 7.53 5.47 13.06 5.47 6.08 0 10.97-2.13 14.68-6.38s5.57-9.75 5.57-16.51v-52.46h31.8zm175.81 8.91c7.29 7.43 10.94 17.62 10.94 30.58v60.56h-31.8v-56.51c0-5.94-1.39-10.56-4.15-13.87-2.77-3.31-6.65-4.96-11.65-4.96-5.54 0-9.93 1.89-13.17 5.67s-4.86 8.78-4.86 14.99v54.69h-31.6v-56.51c0-5.94-1.35-10.56-4.05-13.87s-6.55-4.96-11.55-4.96c-5.54 0-9.96 1.89-13.26 5.67-3.31 3.78-4.96 8.78-4.96 14.99v54.69h-31.8v-100.06h27.55l1.82 11.14c3.51-4.32 7.73-7.63 12.66-9.93 4.93-2.29 10.23-3.44 15.9-3.44 6.48 0 12.28 1.39 17.42 4.15 5.13 2.77 9.18 6.58 12.15 11.44 8.1-10.4 19.58-15.59 34.43-15.59 12.69 0 22.69 3.71 29.98 11.14z"/></g><path d="m710.24 473.12c0 .69-.15 1.4-.46 2.08-17.72 38.39-63.28 70.01-115.35 64.12-61.77-6.98-101.89-55.58-104.52-109.48-3.07-62.72 41.06-110.56 96.52-120.44 35.06-6.24 67.87 4.63 91.9 23.67 2.46 1.95 1.02 5.91-2.12 5.83-.25 0-.51-.01-.76-.01-16.55 0-31.35 14.45-31.41 30.7v.07c0 2.6-2.8 4.19-5.01 2.82-5.47-3.4-11.56-5.93-18.31-7.57-42.72-10.38-81.97 25.19-74.21 68.95 4.58 25.81 22.3 45.18 48.11 49.47 25.15 4.19 46.34-3.74 61.64-24.86 2.22-3.08 4.04-3.73 7.73-2.59 14.15 4.39 28.47 8.32 42.71 12.48 2.19.64 3.56 2.63 3.56 4.76z" fill="#135dfb"/><path d="m677.78 344.14c14.68 0 27.88 12.87 27.58 27.52-.32 15.31-12.74 27.58-27.68 27.58-14.68 0-27.61-12.58-27.56-28.06.05-14.31 13.08-27.04 27.66-27.04z" fill="#f35325"/></svg>